<svg width="367" height="95" viewBox="0 0 367 95" fill="none" xmlns="http://www.w3.org/2000/svg">
<path d="M127.864 66.576C129.848 66.576 131.576 66.24 133.048 65.568C134.52 64.896 135.672 63.968 136.504 62.784C137.336 61.568 137.752 60.176 137.752 58.608C137.752 56.784 137.176 55.216 136.024 53.904C134.872 52.592 133.208 51.632 131.032 51.024L126.856 49.776C125.96 49.52 125.224 49.184 124.648 48.768C124.072 48.352 123.784 47.776 123.784 47.04C123.784 46.272 124.088 45.648 124.696 45.168C125.304 44.688 126.136 44.448 127.192 44.448C128.504 44.448 129.688 44.8 130.744 45.504C131.832 46.208 132.584 47.152 133 48.336L137.8 46.08C137 43.968 135.656 42.32 133.768 41.136C131.88 39.92 129.704 39.312 127.24 39.312C125.352 39.312 123.672 39.648 122.2 40.32C120.76 40.992 119.624 41.936 118.792 43.152C117.992 44.336 117.592 45.728 117.592 47.328C117.592 49.12 118.152 50.672 119.272 51.984C120.424 53.296 122.104 54.272 124.312 54.912L128.584 56.112C129.416 56.336 130.12 56.672 130.696 57.12C131.304 57.536 131.608 58.112 131.608 58.848C131.608 59.712 131.256 60.4 130.552 60.912C129.88 61.392 128.984 61.632 127.864 61.632C126.392 61.632 125.064 61.216 123.88 60.384C122.696 59.552 121.752 58.4 121.048 56.928L116.344 59.184C117.112 61.424 118.52 63.216 120.568 64.56C122.648 65.904 125.08 66.576 127.864 66.576ZM155.64 66.576C157.528 66.576 159.272 66.256 160.872 65.616C162.472 64.944 163.848 64.032 165 62.88C166.152 61.696 166.984 60.368 167.496 58.896L161.976 56.4C161.464 57.776 160.648 58.864 159.528 59.664C158.44 60.432 157.144 60.816 155.64 60.816C154.264 60.816 153.032 60.48 151.944 59.808C150.888 59.136 150.056 58.208 149.448 57.024C148.84 55.808 148.536 54.448 148.536 52.944C148.536 51.408 148.84 50.048 149.448 48.864C150.056 47.68 150.888 46.752 151.944 46.08C153.032 45.408 154.264 45.072 155.64 45.072C157.144 45.072 158.44 45.472 159.528 46.272C160.648 47.072 161.464 48.128 161.976 49.44L167.496 47.04C166.952 45.504 166.104 44.16 164.952 43.008C163.8 41.824 162.424 40.912 160.824 40.272C159.224 39.632 157.496 39.312 155.64 39.312C153.048 39.312 150.712 39.904 148.632 41.088C146.584 42.272 144.968 43.888 143.784 45.936C142.6 47.984 142.008 50.304 142.008 52.896C142.008 55.488 142.6 57.824 143.784 59.904C144.968 61.952 146.584 63.584 148.632 64.8C150.712 65.984 153.048 66.576 155.64 66.576ZM172.747 66H179.035V50.688C179.035 48.992 179.531 47.632 180.523 46.608C181.515 45.584 182.779 45.072 184.315 45.072C185.851 45.072 187.115 45.584 188.107 46.608C189.099 47.6 189.595 48.96 189.595 50.688V66H195.883V49.2C195.883 47.248 195.467 45.536 194.635 44.064C193.803 42.56 192.635 41.392 191.131 40.56C189.659 39.728 187.963 39.312 186.043 39.312C184.539 39.312 183.179 39.584 181.963 40.128C180.747 40.64 179.771 41.424 179.035 42.48V29.664H172.747V66ZM214.449 66.576C216.977 66.576 219.281 66 221.361 64.848C223.441 63.664 225.105 62.048 226.353 60C227.601 57.92 228.225 55.568 228.225 52.944C228.225 50.32 227.601 47.984 226.353 45.936C225.137 43.888 223.489 42.272 221.409 41.088C219.329 39.904 217.009 39.312 214.449 39.312C211.857 39.312 209.521 39.904 207.441 41.088C205.361 42.272 203.697 43.888 202.449 45.936C201.233 47.984 200.625 50.32 200.625 52.944C200.625 55.568 201.233 57.904 202.449 59.952C203.697 62 205.361 63.616 207.441 64.8C209.553 65.984 211.889 66.576 214.449 66.576ZM214.449 60.816C213.041 60.816 211.777 60.48 210.657 59.808C209.569 59.136 208.705 58.208 208.065 57.024C207.457 55.808 207.153 54.448 207.153 52.944C207.153 51.44 207.457 50.096 208.065 48.912C208.705 47.728 209.569 46.8 210.657 46.128C211.777 45.424 213.041 45.072 214.449 45.072C215.857 45.072 217.089 45.424 218.145 46.128C219.233 46.8 220.081 47.728 220.689 48.912C221.329 50.096 221.649 51.44 221.649 52.944C221.649 54.448 221.329 55.808 220.689 57.024C220.081 58.208 219.233 59.136 218.145 59.808C217.089 60.48 215.857 60.816 214.449 60.816ZM233.473 66H239.761V29.664H233.473V66ZM253.967 66.576C257.359 66.576 260.079 65.456 262.127 63.216V66H268.079V48.624C268.079 46.8 267.615 45.184 266.687 43.776C265.759 42.368 264.479 41.28 262.847 40.512C261.247 39.712 259.375 39.312 257.231 39.312C254.607 39.312 252.271 39.936 250.223 41.184C248.175 42.432 246.767 44.08 245.999 46.128L251.135 48.624C251.615 47.44 252.367 46.496 253.391 45.792C254.415 45.056 255.615 44.688 256.991 44.688C258.431 44.688 259.583 45.072 260.447 45.84C261.343 46.576 261.791 47.504 261.791 48.624V49.488L254.015 50.736C250.943 51.248 248.671 52.224 247.199 53.664C245.727 55.104 244.991 56.912 244.991 59.088C244.991 61.392 245.807 63.216 247.439 64.56C249.071 65.904 251.247 66.576 253.967 66.576ZM251.519 58.848C251.519 57.024 252.751 55.872 255.215 55.392L261.791 54.288V55.344C261.791 57.136 261.167 58.656 259.919 59.904C258.703 61.152 257.103 61.776 255.119 61.776C254.063 61.776 253.199 61.52 252.527 61.008C251.855 60.464 251.519 59.744 251.519 58.848ZM274.371 66H280.659V51.456C280.659 49.472 281.203 47.936 282.291 46.848C283.411 45.728 284.851 45.168 286.611 45.168H288.867V39.6H287.331C285.731 39.6 284.323 39.888 283.107 40.464C281.891 41.04 280.947 42.08 280.275 43.584V39.888H274.371V66ZM295.828 66H302.116V45.504H307.924V39.888H302.116V39.024C302.116 37.712 302.5 36.752 303.268 36.144C304.068 35.504 305.156 35.184 306.532 35.184C307.044 35.184 307.588 35.232 308.164 35.328V29.904C307.428 29.744 306.612 29.664 305.716 29.664C302.708 29.664 300.308 30.48 298.516 32.112C296.724 33.744 295.828 36.048 295.828 39.024V39.888H291.22V45.504H295.828V66ZM324.848 66.576C327.376 66.576 329.68 66 331.76 64.848C333.84 63.664 335.504 62.048 336.752 60C338 57.92 338.624 55.568 338.624 52.944C338.624 50.32 338 47.984 336.752 45.936C335.536 43.888 333.888 42.272 331.808 41.088C329.728 39.904 327.408 39.312 324.848 39.312C322.256 39.312 319.92 39.904 317.84 41.088C315.76 42.272 314.096 43.888 312.848 45.936C311.632 47.984 311.024 50.32 311.024 52.944C311.024 55.568 311.632 57.904 312.848 59.952C314.096 62 315.76 63.616 317.84 64.8C319.952 65.984 322.288 66.576 324.848 66.576ZM324.848 60.816C323.44 60.816 322.176 60.48 321.056 59.808C319.968 59.136 319.104 58.208 318.464 57.024C317.856 55.808 317.552 54.448 317.552 52.944C317.552 51.44 317.856 50.096 318.464 48.912C319.104 47.728 319.968 46.8 321.056 46.128C322.176 45.424 323.44 45.072 324.848 45.072C326.256 45.072 327.488 45.424 328.544 46.128C329.632 46.8 330.48 47.728 331.088 48.912C331.728 50.096 332.048 51.44 332.048 52.944C332.048 54.448 331.728 55.808 331.088 57.024C330.48 58.208 329.632 59.136 328.544 59.808C327.488 60.48 326.256 60.816 324.848 60.816ZM340.584 66H347.976L353.448 57.888L358.872 66H366.216L357.144 52.896L366.264 39.888H358.92L353.448 48L347.928 39.888H340.536L349.704 52.896L340.584 66Z" fill="black"/>
<g clip-path="url(#clip0_252_71)">
<path d="M17.929 26.2215C32.1882 33.5906 42.5842 43.9328 47.4998 55.6666C52.4153 43.9328 62.8111 33.5906 77.0704 26.2215C60.8684 10.0828 34.3985 9.81634 17.929 26.2215Z" fill="#0000FF"/>
<path d="M4.19855 4.03196C1.94453 3.28365 -0.309498 5.17919 0.035063 7.52618C1.11996 14.9128 3.01829 24.947 5.46231 32.1486C10.1082 23.9371 17.1354 17.1177 25.855 12.7469C17.2583 8.42218 5.931 4.6066 4.19855 4.03196Z" fill="#0000FF"/>
<path d="M90.8013 4.03193C89.069 4.60638 77.7418 8.42215 69.145 12.7469C77.8646 17.1178 84.8922 23.9374 89.5377 32.1488C91.9777 24.9599 93.8792 14.9202 94.965 7.52578C95.3105 5.17137 93.0477 3.28659 90.8013 4.03193Z" fill="#0000FF"/>
<path d="M81.349 31.209C67.5391 38.0191 57.5988 47.6829 53.2095 58.5694H54.2339C56.9604 58.5694 58.437 61.786 56.6472 63.8522L49.9129 71.6268C48.6395 73.0971 46.3575 73.0942 45.0867 71.6268L38.3522 63.8522C36.5678 61.7921 38.0311 58.5694 40.7655 58.5694H41.7901C37.4006 47.6826 27.4601 38.0191 13.6502 31.209C8.51353 38.2455 5.58374 46.8552 5.58374 55.9353C5.58374 56.8874 6.00864 57.7895 6.7423 58.3962L45.4656 90.4021C46.6462 91.3778 48.3529 91.3778 49.5335 90.4021L88.2567 58.3962C88.9904 57.7897 89.4153 56.8874 89.4153 55.9353C89.4157 46.8552 86.4857 38.2451 81.349 31.209ZM25.4265 52.6211C23.094 52.6211 21.2031 50.7302 21.2031 48.3977C21.2031 46.0652 23.094 44.1743 25.4265 44.1743C27.759 44.1743 29.6499 46.0652 29.6499 48.3977C29.6497 50.7304 27.759 52.6211 25.4265 52.6211ZM69.5735 52.6211C67.241 52.6211 65.3501 50.7302 65.3501 48.3977C65.3501 46.0652 67.241 44.1743 69.5735 44.1743C71.906 44.1743 73.7969 46.0652 73.7969 48.3977C73.7969 50.7304 71.906 52.6211 69.5735 52.6211Z" fill="#0000FF"/>
</g>
<defs>
<clipPath id="clip0_252_71">
<rect width="95" height="95" fill="white"/>
</clipPath>
</defs>
</svg>
